G75*
%MOIN*%
%OFA0B0*%
%FSLAX25Y25*%
%IPPOS*%
%LPD*%
%AMOC8*
5,1,8,0,0,1.08239X$1,22.5*
%
%ADD10C,0.14580*%
%ADD11C,0.07400*%
%ADD12C,0.07800*%
%ADD13C,0.07800*%
%ADD14C,0.07296*%
%ADD15C,0.06737*%
%ADD16C,0.10800*%
%ADD17C,0.06000*%
%ADD18C,0.06800*%
%ADD19C,0.05950*%
%ADD20C,0.05800*%
%ADD21R,0.04762X0.04762*%
D10*
X0095833Y0125400D03*
X0095833Y0440400D03*
X0805833Y0440400D03*
X0805833Y0125400D03*
D11*
X0763333Y0187900D03*
X0780833Y0195400D03*
X0790833Y0195400D03*
X0763333Y0207900D03*
X0725833Y0242900D03*
X0715833Y0242900D03*
X0695833Y0250400D03*
X0685833Y0250400D03*
X0690833Y0242900D03*
X0665833Y0275400D03*
X0665833Y0285400D03*
X0755833Y0300400D03*
X0780833Y0310400D03*
X0790833Y0310400D03*
X0755833Y0320400D03*
X0550833Y0315400D03*
X0550833Y0325400D03*
X0545833Y0270400D03*
X0545833Y0250400D03*
X0525833Y0207900D03*
X0515833Y0207900D03*
X0500833Y0185400D03*
X0470833Y0185400D03*
X0470833Y0195400D03*
X0455833Y0165400D03*
X0445833Y0165400D03*
X0430833Y0167900D03*
X0420833Y0167900D03*
X0425833Y0152900D03*
X0435833Y0152900D03*
X0440833Y0140400D03*
X0440833Y0130400D03*
X0425833Y0130400D03*
X0425833Y0140400D03*
X0410833Y0140400D03*
X0410833Y0130400D03*
X0395833Y0130400D03*
X0380833Y0130400D03*
X0380833Y0140400D03*
X0395833Y0140400D03*
X0395833Y0152900D03*
X0405833Y0152900D03*
X0380833Y0165400D03*
X0370833Y0165400D03*
X0355833Y0165400D03*
X0345833Y0165400D03*
X0345833Y0152900D03*
X0350833Y0140400D03*
X0350833Y0130400D03*
X0365833Y0130400D03*
X0365833Y0140400D03*
X0365833Y0152900D03*
X0375833Y0152900D03*
X0395833Y0185400D03*
X0395833Y0195400D03*
X0410833Y0195400D03*
X0410833Y0185400D03*
X0455833Y0152900D03*
X0455833Y0140400D03*
X0455833Y0130400D03*
X0500833Y0165400D03*
X0425833Y0222900D03*
X0405833Y0222900D03*
X0405833Y0242900D03*
X0425833Y0242900D03*
X0445833Y0250400D03*
X0445833Y0260400D03*
X0455833Y0260400D03*
X0455833Y0250400D03*
X0473333Y0240400D03*
X0455833Y0230400D03*
X0445833Y0230400D03*
X0425333Y0257900D03*
X0406333Y0257900D03*
X0382833Y0260400D03*
X0365833Y0254400D03*
X0382833Y0240400D03*
X0355833Y0231400D03*
X0345833Y0231400D03*
X0325833Y0236900D03*
X0320833Y0244400D03*
X0315833Y0236900D03*
X0300833Y0232900D03*
X0300833Y0222900D03*
X0315833Y0222900D03*
X0325833Y0222900D03*
X0335833Y0195400D03*
X0335833Y0185400D03*
X0305833Y0170400D03*
X0305833Y0160400D03*
X0315833Y0155400D03*
X0315833Y0145400D03*
X0305833Y0135400D03*
X0305833Y0125400D03*
X0285833Y0125400D03*
X0285833Y0135400D03*
X0275833Y0145400D03*
X0275833Y0155400D03*
X0265833Y0160400D03*
X0265833Y0170400D03*
X0285833Y0170400D03*
X0285833Y0160400D03*
X0295833Y0155400D03*
X0295833Y0145400D03*
X0265833Y0135400D03*
X0265833Y0125400D03*
X0245833Y0125400D03*
X0245833Y0135400D03*
X0235833Y0145400D03*
X0235833Y0155400D03*
X0225833Y0160400D03*
X0215833Y0155400D03*
X0215833Y0145400D03*
X0205833Y0135400D03*
X0205833Y0125400D03*
X0185833Y0125400D03*
X0185833Y0135400D03*
X0175833Y0145400D03*
X0175833Y0155400D03*
X0165833Y0160400D03*
X0165833Y0170400D03*
X0185833Y0170400D03*
X0185833Y0160400D03*
X0195833Y0155400D03*
X0205833Y0160400D03*
X0205833Y0170400D03*
X0225833Y0170400D03*
X0245833Y0170400D03*
X0245833Y0160400D03*
X0255833Y0155400D03*
X0255833Y0145400D03*
X0225833Y0135400D03*
X0225833Y0125400D03*
X0195833Y0145400D03*
X0165833Y0135400D03*
X0165833Y0125400D03*
X0145833Y0125400D03*
X0145833Y0135400D03*
X0135833Y0145400D03*
X0135833Y0155400D03*
X0125833Y0160400D03*
X0125833Y0170400D03*
X0145833Y0170400D03*
X0145833Y0160400D03*
X0155833Y0155400D03*
X0155833Y0145400D03*
X0125833Y0135400D03*
X0125833Y0125400D03*
X0133833Y0195400D03*
X0146833Y0200400D03*
X0133833Y0205400D03*
X0146833Y0220400D03*
X0150833Y0255400D03*
X0150833Y0275400D03*
X0145833Y0307900D03*
X0145833Y0327900D03*
X0135833Y0375400D03*
X0135833Y0385400D03*
X0146833Y0385400D03*
X0146833Y0395400D03*
X0135833Y0400400D03*
X0135833Y0410400D03*
X0121833Y0395400D03*
X0110833Y0400400D03*
X0110833Y0410400D03*
X0110833Y0385400D03*
X0121833Y0385400D03*
X0110833Y0375400D03*
X0160833Y0375400D03*
X0160833Y0385400D03*
X0171833Y0385400D03*
X0171833Y0395400D03*
X0160833Y0400400D03*
X0160833Y0410400D03*
X0185833Y0410400D03*
X0185833Y0400400D03*
X0196833Y0395400D03*
X0196833Y0385400D03*
X0185833Y0385400D03*
X0185833Y0375400D03*
X0210833Y0376400D03*
X0210833Y0386400D03*
X0221833Y0385400D03*
X0221833Y0395400D03*
X0210833Y0400400D03*
X0210833Y0410400D03*
X0235833Y0410400D03*
X0235833Y0400400D03*
X0246833Y0395400D03*
X0246833Y0385400D03*
X0235833Y0386400D03*
X0235833Y0376400D03*
X0260833Y0375400D03*
X0260833Y0385400D03*
X0271833Y0385400D03*
X0271833Y0395400D03*
X0260833Y0400400D03*
X0260833Y0410400D03*
X0285833Y0410400D03*
X0285833Y0400400D03*
X0296833Y0395400D03*
X0296833Y0385400D03*
X0285833Y0385400D03*
X0285833Y0375400D03*
X0310833Y0375400D03*
X0310833Y0385400D03*
X0321833Y0385400D03*
X0321833Y0395400D03*
X0310833Y0400400D03*
X0310833Y0410400D03*
X0335833Y0410400D03*
X0335833Y0400400D03*
X0346833Y0395400D03*
X0346833Y0385400D03*
X0335833Y0385400D03*
X0335833Y0375400D03*
X0355833Y0370400D03*
X0365833Y0370400D03*
X0380833Y0370400D03*
X0400833Y0370400D03*
X0400833Y0430400D03*
X0390833Y0430400D03*
X0380833Y0430400D03*
X0370833Y0430400D03*
X0275833Y0335400D03*
X0265833Y0335400D03*
X0280833Y0275400D03*
X0290833Y0275400D03*
X0315833Y0256400D03*
X0325833Y0256400D03*
X0345833Y0254400D03*
X0473333Y0260400D03*
X0640833Y0185400D03*
X0640833Y0165400D03*
X0635833Y0150400D03*
X0625833Y0150400D03*
D12*
X0778833Y0405400D03*
X0792833Y0405400D03*
D13*
X0125833Y0106400D02*
X0125833Y0099400D01*
X0145833Y0099400D02*
X0145833Y0106400D01*
X0165833Y0106400D02*
X0165833Y0099400D01*
X0185833Y0099400D02*
X0185833Y0106400D01*
X0205833Y0106400D02*
X0205833Y0099400D01*
X0225833Y0099400D02*
X0225833Y0106400D01*
X0265833Y0106400D02*
X0265833Y0099400D01*
X0285833Y0099400D02*
X0285833Y0106400D01*
X0325833Y0106400D02*
X0325833Y0099400D01*
X0350833Y0099400D02*
X0350833Y0106400D01*
X0370833Y0106400D02*
X0370833Y0099400D01*
X0390833Y0099400D02*
X0390833Y0106400D01*
X0410833Y0106400D02*
X0410833Y0099400D01*
X0430833Y0099400D02*
X0430833Y0106400D01*
X0450833Y0106400D02*
X0450833Y0099400D01*
X0475833Y0099400D02*
X0475833Y0106400D01*
X0495833Y0106400D02*
X0495833Y0099400D01*
X0515833Y0099400D02*
X0515833Y0106400D01*
X0535833Y0106400D02*
X0535833Y0099400D01*
X0575833Y0099400D02*
X0575833Y0106400D01*
X0595833Y0106400D02*
X0595833Y0099400D01*
X0615833Y0099400D02*
X0615833Y0106400D01*
X0635833Y0106400D02*
X0635833Y0099400D01*
X0655833Y0099400D02*
X0655833Y0106400D01*
X0675833Y0106400D02*
X0675833Y0099400D01*
X0695833Y0099400D02*
X0695833Y0106400D01*
X0735833Y0106400D02*
X0735833Y0099400D01*
X0755833Y0099400D02*
X0755833Y0106400D01*
X0775833Y0106400D02*
X0775833Y0099400D01*
X0775833Y0459400D02*
X0775833Y0466400D01*
X0755833Y0466400D02*
X0755833Y0459400D01*
X0725833Y0459400D02*
X0725833Y0466400D01*
X0705833Y0466400D02*
X0705833Y0459400D01*
X0685833Y0459400D02*
X0685833Y0466400D01*
X0645833Y0466400D02*
X0645833Y0459400D01*
X0625833Y0459400D02*
X0625833Y0466400D01*
X0605833Y0466400D02*
X0605833Y0459400D01*
X0585833Y0459400D02*
X0585833Y0466400D01*
X0565833Y0466400D02*
X0565833Y0459400D01*
X0545833Y0459400D02*
X0545833Y0466400D01*
X0525833Y0466400D02*
X0525833Y0459400D01*
X0485833Y0459400D02*
X0485833Y0466400D01*
X0465833Y0466400D02*
X0465833Y0459400D01*
X0445833Y0459400D02*
X0445833Y0466400D01*
X0425833Y0466400D02*
X0425833Y0459400D01*
X0385833Y0459400D02*
X0385833Y0466400D01*
X0365833Y0466400D02*
X0365833Y0459400D01*
X0325833Y0459400D02*
X0325833Y0466400D01*
X0285833Y0466400D02*
X0285833Y0459400D01*
X0265833Y0459400D02*
X0265833Y0466400D01*
X0225833Y0466400D02*
X0225833Y0459400D01*
X0205833Y0459400D02*
X0205833Y0466400D01*
X0185833Y0466400D02*
X0185833Y0459400D01*
X0165833Y0459400D02*
X0165833Y0466400D01*
X0145833Y0466400D02*
X0145833Y0459400D01*
X0125833Y0459400D02*
X0125833Y0466400D01*
D14*
X0245833Y0466148D02*
X0245833Y0459652D01*
X0305833Y0459652D02*
X0305833Y0466148D01*
X0505833Y0466148D02*
X0505833Y0459652D01*
X0665833Y0459652D02*
X0665833Y0466148D01*
X0715833Y0106148D02*
X0715833Y0099652D01*
X0555833Y0099652D02*
X0555833Y0106148D01*
X0305833Y0106148D02*
X0305833Y0099652D01*
X0245833Y0099652D02*
X0245833Y0106148D01*
D15*
X0108802Y0195400D02*
X0102865Y0195400D01*
X0102865Y0205400D02*
X0108802Y0205400D01*
X0108802Y0215400D02*
X0102865Y0215400D01*
X0102865Y0225400D02*
X0108802Y0225400D01*
X0108802Y0250400D02*
X0102865Y0250400D01*
X0102865Y0260400D02*
X0108802Y0260400D01*
X0108802Y0270400D02*
X0102865Y0270400D01*
X0102865Y0280400D02*
X0108802Y0280400D01*
X0108802Y0290400D02*
X0102865Y0290400D01*
X0102865Y0315400D02*
X0108802Y0315400D01*
X0108802Y0325400D02*
X0102865Y0325400D01*
X0102865Y0335400D02*
X0108802Y0335400D01*
X0108802Y0345400D02*
X0102865Y0345400D01*
X0280833Y0264369D02*
X0280833Y0258431D01*
X0290833Y0258431D02*
X0290833Y0264369D01*
X0420833Y0367461D02*
X0420833Y0373398D01*
X0450833Y0373398D02*
X0450833Y0367461D01*
X0460833Y0367461D02*
X0460833Y0373398D01*
X0490833Y0373398D02*
X0490833Y0367461D01*
X0500833Y0367461D02*
X0500833Y0373398D01*
X0530833Y0373398D02*
X0530833Y0367461D01*
X0540833Y0367461D02*
X0540833Y0373398D01*
X0570833Y0373398D02*
X0570833Y0367461D01*
X0580833Y0367461D02*
X0580833Y0373398D01*
X0610833Y0373398D02*
X0610833Y0367461D01*
X0620833Y0367461D02*
X0620833Y0373398D01*
X0650833Y0373398D02*
X0650833Y0367461D01*
X0660833Y0367461D02*
X0660833Y0373398D01*
X0690833Y0373398D02*
X0690833Y0367461D01*
X0700833Y0367461D02*
X0700833Y0373398D01*
X0730833Y0373398D02*
X0730833Y0367461D01*
X0752865Y0352900D02*
X0758802Y0352900D01*
X0758802Y0337900D02*
X0752865Y0337900D01*
X0733802Y0330400D02*
X0727865Y0330400D01*
X0703802Y0330400D02*
X0697865Y0330400D01*
X0697865Y0310400D02*
X0703802Y0310400D01*
X0727865Y0310400D02*
X0733802Y0310400D01*
X0733802Y0280400D02*
X0727865Y0280400D01*
X0703802Y0280400D02*
X0697865Y0280400D01*
X0752865Y0237900D02*
X0758802Y0237900D01*
X0758802Y0222900D02*
X0752865Y0222900D01*
X0802865Y0160400D02*
X0808802Y0160400D01*
X0808802Y0150400D02*
X0802865Y0150400D01*
X0555833Y0337431D02*
X0555833Y0343369D01*
X0545833Y0343369D02*
X0545833Y0337431D01*
X0535833Y0337431D02*
X0535833Y0343369D01*
X0525833Y0343369D02*
X0525833Y0337431D01*
X0530833Y0417481D02*
X0530833Y0423418D01*
X0540833Y0427452D02*
X0540833Y0433389D01*
X0570833Y0423418D02*
X0570833Y0417481D01*
X0580833Y0427452D02*
X0580833Y0433389D01*
X0610833Y0423418D02*
X0610833Y0417481D01*
X0620833Y0427452D02*
X0620833Y0433389D01*
X0650833Y0423418D02*
X0650833Y0417481D01*
X0660833Y0427452D02*
X0660833Y0433389D01*
X0690833Y0423418D02*
X0690833Y0417481D01*
X0700833Y0427452D02*
X0700833Y0433389D01*
X0730833Y0423418D02*
X0730833Y0417481D01*
X0733802Y0350400D02*
X0727865Y0350400D01*
X0703802Y0350400D02*
X0697865Y0350400D01*
X0500833Y0427452D02*
X0500833Y0433389D01*
X0490833Y0423418D02*
X0490833Y0417481D01*
X0460833Y0427452D02*
X0460833Y0433389D01*
X0450833Y0423418D02*
X0450833Y0417481D01*
X0420833Y0427452D02*
X0420833Y0433389D01*
D16*
X0695833Y0265400D03*
X0735833Y0265400D03*
X0755833Y0260400D03*
X0785833Y0260400D03*
X0785833Y0175400D03*
X0765833Y0175400D03*
X0765833Y0145400D03*
X0785833Y0145400D03*
X0785833Y0375400D03*
X0755833Y0375400D03*
X0755833Y0405400D03*
X0755833Y0435400D03*
D17*
X0665833Y0348000D02*
X0665833Y0342800D01*
X0655833Y0342800D02*
X0655833Y0348000D01*
X0645833Y0348000D02*
X0645833Y0342800D01*
X0635833Y0342800D02*
X0635833Y0348000D01*
X0625833Y0348000D02*
X0625833Y0342800D01*
X0615833Y0342800D02*
X0615833Y0348000D01*
X0605833Y0348000D02*
X0605833Y0342800D01*
X0595833Y0342800D02*
X0595833Y0348000D01*
X0585833Y0348000D02*
X0585833Y0342800D01*
X0585833Y0318000D02*
X0585833Y0312800D01*
X0595833Y0312800D02*
X0595833Y0318000D01*
X0605833Y0318000D02*
X0605833Y0312800D01*
X0615833Y0312800D02*
X0615833Y0318000D01*
X0625833Y0318000D02*
X0625833Y0312800D01*
X0635833Y0312800D02*
X0635833Y0318000D01*
X0645833Y0318000D02*
X0645833Y0312800D01*
X0655833Y0312800D02*
X0655833Y0318000D01*
X0665833Y0318000D02*
X0665833Y0312800D01*
X0650833Y0278000D02*
X0650833Y0272800D01*
X0640833Y0272800D02*
X0640833Y0278000D01*
X0630833Y0278000D02*
X0630833Y0272800D01*
X0620833Y0272800D02*
X0620833Y0278000D01*
X0610833Y0278000D02*
X0610833Y0272800D01*
X0600833Y0272800D02*
X0600833Y0278000D01*
X0590833Y0278000D02*
X0590833Y0272800D01*
X0580833Y0272800D02*
X0580833Y0278000D01*
X0570833Y0278000D02*
X0570833Y0272800D01*
X0560833Y0272800D02*
X0560833Y0278000D01*
X0560833Y0248000D02*
X0560833Y0242800D01*
X0570833Y0242800D02*
X0570833Y0248000D01*
X0580833Y0248000D02*
X0580833Y0242800D01*
X0590833Y0242800D02*
X0590833Y0248000D01*
X0600833Y0248000D02*
X0600833Y0242800D01*
X0610833Y0242800D02*
X0610833Y0248000D01*
X0620833Y0248000D02*
X0620833Y0242800D01*
X0630833Y0242800D02*
X0630833Y0248000D01*
X0640833Y0248000D02*
X0640833Y0242800D01*
X0650833Y0242800D02*
X0650833Y0248000D01*
X0655833Y0188000D02*
X0655833Y0182800D01*
X0665833Y0182800D02*
X0665833Y0188000D01*
X0675833Y0188000D02*
X0675833Y0182800D01*
X0685833Y0182800D02*
X0685833Y0188000D01*
X0695833Y0188000D02*
X0695833Y0182800D01*
X0705833Y0182800D02*
X0705833Y0188000D01*
X0715833Y0188000D02*
X0715833Y0182800D01*
X0725833Y0182800D02*
X0725833Y0188000D01*
X0735833Y0188000D02*
X0735833Y0182800D01*
X0745833Y0182800D02*
X0745833Y0188000D01*
X0745833Y0158000D02*
X0745833Y0152800D01*
X0735833Y0152800D02*
X0735833Y0158000D01*
X0725833Y0158000D02*
X0725833Y0152800D01*
X0715833Y0152800D02*
X0715833Y0158000D01*
X0705833Y0158000D02*
X0705833Y0152800D01*
X0695833Y0152800D02*
X0695833Y0158000D01*
X0685833Y0158000D02*
X0685833Y0152800D01*
X0675833Y0152800D02*
X0675833Y0158000D01*
X0665833Y0158000D02*
X0665833Y0152800D01*
X0655833Y0152800D02*
X0655833Y0158000D01*
X0605833Y0160500D02*
X0605833Y0155300D01*
X0595833Y0155300D02*
X0595833Y0160500D01*
X0585833Y0160500D02*
X0585833Y0155300D01*
X0575833Y0155300D02*
X0575833Y0160500D01*
X0565833Y0160500D02*
X0565833Y0155300D01*
X0555833Y0155300D02*
X0555833Y0160500D01*
X0545833Y0160500D02*
X0545833Y0155300D01*
X0535833Y0155300D02*
X0535833Y0160500D01*
X0525833Y0160500D02*
X0525833Y0155300D01*
X0515833Y0155300D02*
X0515833Y0160500D01*
X0515833Y0185300D02*
X0515833Y0190500D01*
X0525833Y0190500D02*
X0525833Y0185300D01*
X0535833Y0185300D02*
X0535833Y0190500D01*
X0545833Y0190500D02*
X0545833Y0185300D01*
X0555833Y0185300D02*
X0555833Y0190500D01*
X0565833Y0190500D02*
X0565833Y0185300D01*
X0575833Y0185300D02*
X0575833Y0190500D01*
X0585833Y0190500D02*
X0585833Y0185300D01*
X0595833Y0185300D02*
X0595833Y0190500D01*
X0605833Y0190500D02*
X0605833Y0185300D01*
X0495833Y0272800D02*
X0495833Y0278000D01*
X0485833Y0278000D02*
X0485833Y0272800D01*
X0475833Y0272800D02*
X0475833Y0278000D01*
X0465833Y0278000D02*
X0465833Y0272800D01*
X0455833Y0272800D02*
X0455833Y0278000D01*
X0445833Y0278000D02*
X0445833Y0272800D01*
X0435833Y0272800D02*
X0435833Y0278000D01*
X0425833Y0278000D02*
X0425833Y0272800D01*
X0415833Y0272800D02*
X0415833Y0278000D01*
X0405833Y0278000D02*
X0405833Y0272800D01*
X0395833Y0272800D02*
X0395833Y0278000D01*
X0385833Y0278000D02*
X0385833Y0272800D01*
X0375833Y0272800D02*
X0375833Y0278000D01*
X0365833Y0278000D02*
X0365833Y0272800D01*
X0355833Y0272800D02*
X0355833Y0278000D01*
X0345833Y0278000D02*
X0345833Y0272800D01*
X0335833Y0272800D02*
X0335833Y0278000D01*
X0325833Y0278000D02*
X0325833Y0272800D01*
X0315833Y0272800D02*
X0315833Y0278000D01*
X0305833Y0278000D02*
X0305833Y0272800D01*
X0250833Y0302800D02*
X0250833Y0308000D01*
X0240833Y0308000D02*
X0240833Y0302800D01*
X0230833Y0302800D02*
X0230833Y0308000D01*
X0220833Y0308000D02*
X0220833Y0302800D01*
X0210833Y0302800D02*
X0210833Y0308000D01*
X0200833Y0308000D02*
X0200833Y0302800D01*
X0190833Y0302800D02*
X0190833Y0308000D01*
X0180833Y0308000D02*
X0180833Y0302800D01*
X0170833Y0302800D02*
X0170833Y0308000D01*
X0160833Y0308000D02*
X0160833Y0302800D01*
X0165833Y0283000D02*
X0165833Y0277800D01*
X0175833Y0277800D02*
X0175833Y0283000D01*
X0185833Y0283000D02*
X0185833Y0277800D01*
X0195833Y0277800D02*
X0195833Y0283000D01*
X0205833Y0283000D02*
X0205833Y0277800D01*
X0215833Y0277800D02*
X0215833Y0283000D01*
X0225833Y0283000D02*
X0225833Y0277800D01*
X0235833Y0277800D02*
X0235833Y0283000D01*
X0235833Y0253000D02*
X0235833Y0247800D01*
X0225833Y0247800D02*
X0225833Y0253000D01*
X0215833Y0253000D02*
X0215833Y0247800D01*
X0205833Y0247800D02*
X0205833Y0253000D01*
X0195833Y0253000D02*
X0195833Y0247800D01*
X0185833Y0247800D02*
X0185833Y0253000D01*
X0175833Y0253000D02*
X0175833Y0247800D01*
X0165833Y0247800D02*
X0165833Y0253000D01*
X0175833Y0228000D02*
X0175833Y0222800D01*
X0185833Y0222800D02*
X0185833Y0228000D01*
X0195833Y0228000D02*
X0195833Y0222800D01*
X0205833Y0222800D02*
X0205833Y0228000D01*
X0215833Y0228000D02*
X0215833Y0222800D01*
X0225833Y0222800D02*
X0225833Y0228000D01*
X0235833Y0228000D02*
X0235833Y0222800D01*
X0245833Y0222800D02*
X0245833Y0228000D01*
X0255833Y0228000D02*
X0255833Y0222800D01*
X0265833Y0222800D02*
X0265833Y0228000D01*
X0265833Y0198000D02*
X0265833Y0192800D01*
X0255833Y0192800D02*
X0255833Y0198000D01*
X0245833Y0198000D02*
X0245833Y0192800D01*
X0235833Y0192800D02*
X0235833Y0198000D01*
X0225833Y0198000D02*
X0225833Y0192800D01*
X0215833Y0192800D02*
X0215833Y0198000D01*
X0205833Y0198000D02*
X0205833Y0192800D01*
X0195833Y0192800D02*
X0195833Y0198000D01*
X0185833Y0198000D02*
X0185833Y0192800D01*
X0175833Y0192800D02*
X0175833Y0198000D01*
X0350833Y0207800D02*
X0350833Y0213000D01*
X0360833Y0213000D02*
X0360833Y0207800D01*
X0370833Y0207800D02*
X0370833Y0213000D01*
X0380833Y0213000D02*
X0380833Y0207800D01*
X0380833Y0183000D02*
X0380833Y0177800D01*
X0370833Y0177800D02*
X0370833Y0183000D01*
X0360833Y0183000D02*
X0360833Y0177800D01*
X0350833Y0177800D02*
X0350833Y0183000D01*
X0425833Y0183000D02*
X0425833Y0177800D01*
X0435833Y0177800D02*
X0435833Y0183000D01*
X0445833Y0183000D02*
X0445833Y0177800D01*
X0455833Y0177800D02*
X0455833Y0183000D01*
X0455833Y0207800D02*
X0455833Y0213000D01*
X0445833Y0213000D02*
X0445833Y0207800D01*
X0435833Y0207800D02*
X0435833Y0213000D01*
X0425833Y0213000D02*
X0425833Y0207800D01*
X0425833Y0332800D02*
X0425833Y0338000D01*
X0415833Y0338000D02*
X0415833Y0332800D01*
X0405833Y0332800D02*
X0405833Y0338000D01*
X0395833Y0338000D02*
X0395833Y0332800D01*
X0385833Y0332800D02*
X0385833Y0338000D01*
X0375833Y0338000D02*
X0375833Y0332800D01*
X0365833Y0332800D02*
X0365833Y0338000D01*
X0355833Y0338000D02*
X0355833Y0332800D01*
X0345833Y0332800D02*
X0345833Y0338000D01*
X0335833Y0338000D02*
X0335833Y0332800D01*
X0325833Y0332800D02*
X0325833Y0338000D01*
X0315833Y0338000D02*
X0315833Y0332800D01*
X0305833Y0332800D02*
X0305833Y0338000D01*
X0250833Y0338000D02*
X0250833Y0332800D01*
X0240833Y0332800D02*
X0240833Y0338000D01*
X0230833Y0338000D02*
X0230833Y0332800D01*
X0220833Y0332800D02*
X0220833Y0338000D01*
X0210833Y0338000D02*
X0210833Y0332800D01*
X0200833Y0332800D02*
X0200833Y0338000D01*
X0190833Y0338000D02*
X0190833Y0332800D01*
X0180833Y0332800D02*
X0180833Y0338000D01*
X0170833Y0338000D02*
X0170833Y0332800D01*
X0160833Y0332800D02*
X0160833Y0338000D01*
X0168233Y0417900D02*
X0173433Y0417900D01*
X0193233Y0417900D02*
X0198433Y0417900D01*
X0218233Y0417900D02*
X0223433Y0417900D01*
X0243233Y0417900D02*
X0248433Y0417900D01*
X0268233Y0417900D02*
X0273433Y0417900D01*
X0293233Y0417900D02*
X0298433Y0417900D01*
X0318233Y0417900D02*
X0323433Y0417900D01*
X0343233Y0417900D02*
X0348433Y0417900D01*
X0370833Y0418000D02*
X0370833Y0412800D01*
X0380833Y0412800D02*
X0380833Y0418000D01*
X0390833Y0418000D02*
X0390833Y0412800D01*
X0400833Y0412800D02*
X0400833Y0418000D01*
X0400833Y0388000D02*
X0400833Y0382800D01*
X0390833Y0382800D02*
X0390833Y0388000D01*
X0380833Y0388000D02*
X0380833Y0382800D01*
X0370833Y0382800D02*
X0370833Y0388000D01*
X0348433Y0427900D02*
X0343233Y0427900D01*
X0343233Y0437900D02*
X0348433Y0437900D01*
X0323433Y0437900D02*
X0318233Y0437900D01*
X0318233Y0427900D02*
X0323433Y0427900D01*
X0298433Y0427900D02*
X0293233Y0427900D01*
X0293233Y0437900D02*
X0298433Y0437900D01*
X0273433Y0437900D02*
X0268233Y0437900D01*
X0268233Y0427900D02*
X0273433Y0427900D01*
X0248433Y0427900D02*
X0243233Y0427900D01*
X0243233Y0437900D02*
X0248433Y0437900D01*
X0223433Y0437900D02*
X0218233Y0437900D01*
X0218233Y0427900D02*
X0223433Y0427900D01*
X0198433Y0427900D02*
X0193233Y0427900D01*
X0193233Y0437900D02*
X0198433Y0437900D01*
X0173433Y0437900D02*
X0168233Y0437900D01*
X0168233Y0427900D02*
X0173433Y0427900D01*
X0148433Y0427900D02*
X0143233Y0427900D01*
X0143233Y0437900D02*
X0148433Y0437900D01*
X0123433Y0437900D02*
X0118233Y0437900D01*
X0118233Y0427900D02*
X0123433Y0427900D01*
X0123433Y0417900D02*
X0118233Y0417900D01*
X0143233Y0417900D02*
X0148433Y0417900D01*
X0435833Y0338000D02*
X0435833Y0332800D01*
X0445833Y0332800D02*
X0445833Y0338000D01*
X0455833Y0338000D02*
X0455833Y0332800D01*
X0465833Y0332800D02*
X0465833Y0338000D01*
X0475833Y0338000D02*
X0475833Y0332800D01*
X0485833Y0332800D02*
X0485833Y0338000D01*
X0495833Y0338000D02*
X0495833Y0332800D01*
D18*
X0772833Y0332000D02*
X0778833Y0332000D01*
X0789233Y0338700D02*
X0795233Y0338700D01*
X0778833Y0345400D02*
X0772833Y0345400D01*
X0789233Y0352100D02*
X0795233Y0352100D01*
X0778833Y0358800D02*
X0772833Y0358800D01*
X0772833Y0243800D02*
X0778833Y0243800D01*
X0789233Y0237100D02*
X0795233Y0237100D01*
X0778833Y0230400D02*
X0772833Y0230400D01*
X0772833Y0217000D02*
X0778833Y0217000D01*
X0789233Y0223700D02*
X0795233Y0223700D01*
D19*
X0735833Y0142975D02*
X0735833Y0137825D01*
X0725833Y0137825D02*
X0725833Y0142975D01*
X0715833Y0142975D02*
X0715833Y0137825D01*
X0705833Y0137825D02*
X0705833Y0142975D01*
X0695833Y0142975D02*
X0695833Y0137825D01*
X0685833Y0137825D02*
X0685833Y0142975D01*
X0675833Y0142975D02*
X0675833Y0137825D01*
X0665833Y0137825D02*
X0665833Y0142975D01*
X0655833Y0142975D02*
X0655833Y0137825D01*
X0595833Y0137825D02*
X0595833Y0142975D01*
X0585833Y0142975D02*
X0585833Y0137825D01*
X0575833Y0137825D02*
X0575833Y0142975D01*
X0565833Y0142975D02*
X0565833Y0137825D01*
X0555833Y0137825D02*
X0555833Y0142975D01*
X0545833Y0142975D02*
X0545833Y0137825D01*
X0535833Y0137825D02*
X0535833Y0142975D01*
X0525833Y0142975D02*
X0525833Y0137825D01*
X0515833Y0137825D02*
X0515833Y0142975D01*
D20*
X0395833Y0215400D03*
X0313333Y0207900D03*
X0265833Y0245400D03*
X0250833Y0245400D03*
X0245833Y0265400D03*
X0250833Y0270400D03*
X0279833Y0305400D03*
X0260833Y0310400D03*
X0348333Y0365400D03*
X0510833Y0322900D03*
X0518333Y0317900D03*
X0525833Y0312900D03*
X0533333Y0307900D03*
X0533333Y0280400D03*
X0513333Y0280400D03*
X0508333Y0250400D03*
X0493333Y0230400D03*
X0493333Y0217900D03*
X0675833Y0170400D03*
X0163833Y0221400D03*
X0155833Y0214400D03*
X0145833Y0367900D03*
D21*
X0610833Y0245400D03*
X0620833Y0245400D03*
X0630833Y0245400D03*
M02*
